<svg data-v-d87d4f92="" id="logo__svg" data-name="logo" xmlns="http://www.w3.org/2000/svg" viewBox="0 0 44 44"><defs data-v-d87d4f92=""></defs><title data-v-d87d4f92="">logo</title><path data-v-d87d4f92="" d="M31.05,3.88V5.71A20.62,20.62,0,0,1,42.62,24.25V22.42A20.62,20.62,0,0,0,31.05,3.88Z" class="cls-1"></path><path data-v-d87d4f92="" d="M12.94,23.39a8.26,8.26,0,0,0,0,.86,9.05,9.05,0,0,0,18.1,0V22.42a9.08,9.08,0,0,1-18.11,1Z" class="cls-1"></path><path data-v-d87d4f92="" d="M22,3.62A20.45,20.45,0,0,1,26,4V2.19A20.6,20.6,0,0,0,1.38,22.42c0,.3,0,.61,0,.91A20.63,20.63,0,0,1,22,3.62Z" class="cls-1"></path><path data-v-d87d4f92="" d="M31.05,4.88v16.7h0v1.83a9.05,9.05,0,1,1-18.1,0V21.58A9.05,9.05,0,0,1,26,13.48V3.19A20.6,20.6,0,0,0,1.41,22.34a20.6,20.6,0,0,0,34,15v4.92h7.26V23.41A20.62,20.62,0,0,0,31.05,4.88Z" class="cls-2"></path></svg>